#!OML:ASF F:\VICON\USERDATA\Patient Classification 1\PLAYGROUND\JustinFriday\JustinFriday.ASF
:FULLY-SPECIFIED
:DEGREES
2988
root 38.1568 18.3167 8.79152 183.633 25.5927 -168.826
lowerback 12.4002 3.25997 7.94045
upperback 4.01765 5.95144 3.66227
thorax -2.31225 3.19184 -1.44323
lowerneck -8.23226 5.80203 0.348021
upperneck 15.2387 8.56088 -1.78373
head 6.06573 4.1897 0.0530497
rclavicle 8.35393e-014 -2.8625e-014
rhumerus -17.7425 -10.2661 -77.0109
rradius 30.9435
rwrist -12.0105
rhand -18.9195 -22.5276
rfingers 7.12502
rthumb 7.38287 -412.379
lclavicle 8.35393e-014 -2.8625e-014
lhumerus -36.7744 -0.653254 87.2888
lradius 31.1309
lwrist -2.18465
lhand -7.01063 -10.2791
lfingers 7.12502
lthumb 18.8606 18.8265
rfemur 0.863838 -0.119022 32.7669
rtibia 17.035
rfoot -11.8141 -4.63973
rtoes 19.9425
lfemur -34.0374 3.7747 -11.102
ltibia 48.2721
lfoot -10.8478 -12.1072
ltoes -4.6987
2989
root 38.207 18.3063 8.68705 183.864 25.1494 -168.542
lowerback 12.5154 3.2347 8.06564
upperback 3.94025 5.95793 3.71305
thorax -2.44916 3.18961 -1.47312
lowerneck -7.53049 5.59337 0.112482
upperneck 14.3287 8.21944 -1.69287
head 5.64156 4.02847 0.0484203
rclavicle -1.11816e-014 -1.98785e-014
rhumerus -17.5538 -9.49264 -77.0162
rradius 31.604
rwrist -12.7048
rhand -19.8434 -21.9794
rfingers 7.12502
rthumb 6.49098 -411.86
lclavicle -1.11816e-014 -1.98785e-014
lhumerus -36.7244 -0.486168 87.2642
lradius 30.8296
lwrist -2.03991
lhand -7.24071 -10.1489
lfingers 7.12502
lthumb 18.6393 18.9781
rfemur 1.32377 -0.135104 33.1631
rtibia 16.6676
rfoot -11.9814 -5.2534
rtoes 18.3356
lfemur -34.2347 3.74549 -11.0199
ltibia 45.7286
lfoot -10.2744 -11.8206
ltoes -8.52481
2990
root 38.2568 18.2956 8.5673 184.129 24.7895 -168.315
lowerback 12.3273 3.22246 8.20553
upperback 3.90495 5.94115 3.73615
thorax -2.37338 3.18354 -1.50943
lowerneck -6.63497 5.55515 0.170473
upperneck 13.1933 8.10414 -1.9007
head 5.14587 3.97431 -0.085954
rclavicle 3.13086e-015 1.19271e-014
rhumerus -17.2601 -8.85292 -77.0557
rradius 32.1622
rwrist -13.2578
rhand -20.698 -22.575
rfingers 7.12502
rthumb 5.66596 -412.479
lclavicle 3.13086e-015 1.19271e-014
lhumerus -36.6948 0.0340874 87.0362
lradius 30.5679
lwrist -2.09638
lhand -7.20331 -10.8792
lfingers 7.12502
lthumb 18.6753 18.2443
rfemur 1.80805 -0.141249 33.4601
rtibia 16.2376
rfoot -12.154 -5.72901
rtoes 17.2125
lfemur -34.3018 3.77841 -11.0498
ltibia 43.0834
lfoot -9.55128 -11.5536
ltoes -8.31606
2991
root 38.3073 18.303 8.44464 184.194 24.5366 -168.602
lowerback 12.1009 3.27429 7.86226
upperback 3.93334 5.92208 3.61421
thorax -2.24255 3.17358 -1.42689
lowerneck -6.63542 5.62542 0.279794
upperneck 12.9265 8.17809 -2.02659
head 5.07396 4.00527 -0.14228
rclavicle -1.54555e-014 1.25234e-014
rhumerus -16.9717 -8.34001 -77.1619
rradius 32.6179
rwrist -13.4612
rhand -21.4084 -22.6626
rfingers 7.12502
rthumb 4.97998 -412.584
lclavicle -1.54555e-014 1.25234e-014
lhumerus -36.5447 0.940641 86.6372
lradius 30.2722
lwrist -2.48111
lhand -7.0845 -11.0859
lfingers 7.12502
lthumb 18.7896 18.0266
rfemur 2.3724 -0.244032 33.208
rtibia 15.655
rfoot -12.3149 -6.01792
rtoes 16.2285
lfemur -34.251 3.65452 -11.5384
ltibia 40.4201
lfoot -8.92282 -11.0585
ltoes -8.54254
2992
root 38.3587 18.3135 8.32603 184.203 24.1602 -168.807
lowerback 12.0384 3.26952 7.551
upperback 3.99907 5.85939 3.51232
thorax -2.16436 3.14453 -1.34721
lowerneck -7.06906 5.74482 0.470805
upperneck 12.9591 8.33475 -2.22371
head 5.17582 4.06728 -0.207005
rclavicle 2.02263e-014 2.18663e-014
rhumerus -16.4016 -8.29304 -77.2602
rradius 32.6754
rwrist -13.4886
rhand -20.906 -22.3589
rfingers 7.12502
rthumb 5.4651 -412.268
lclavicle 2.02263e-014 2.18663e-014
lhumerus -36.3679 1.50703 86.3583
lradius 30.0293
lwrist -2.844
lhand -7.17058 -10.5168
lfingers 7.12502
lthumb 18.7068 18.6037
rfemur 3.00152 -0.686015 33.0017
rtibia 15.0604
rfoot -12.4673 -5.95338
rtoes 16.0757
lfemur -34.143 3.31042 -11.8505
ltibia 37.8363
lfoot -9.95642 -10.4973
ltoes -11.2009
2993
root 38.4077 18.3074 8.20761 184.439 23.7279 -168.348
lowerback 12.0676 3.20674 7.88699
upperback 3.98196 5.8363 3.58974
thorax -2.17507 3.13842 -1.45037
lowerneck -7.30509 5.78713 0.5631
upperneck 13.1035 8.39362 -2.26136
head 5.26693 4.09293 -0.218083
rclavicle -2.47487e-014 4.37326e-014
rhumerus -15.8973 -8.09008 -77.3352
rradius 33.0272
rwrist -15.0118
rhand -20.1736 -25.2862
rfingers 7.12502
rthumb 6.17223 -415.176
lclavicle -2.47487e-014 4.37326e-014
lhumerus -36.3736 1.44197 86.3722
lradius 29.9651
lwrist -2.43881
lhand -7.32951 -9.85863
lfingers 7.12502
lthumb 18.5539 19.2765
rfemur 3.67265 -1.09258 33.459
rtibia 14.421
rfoot -12.5109 -5.89129
rtoes 16.4436
lfemur -33.9862 3.07188 -11.4956
ltibia 35.3698
lfoot -9.75317 -10.1842
ltoes -11.2342
2994
root 38.4547 18.2976 8.08753 184.73 23.3788 -167.986
lowerback 11.9804 3.21951 8.15997
upperback 3.91019 5.88602 3.64621
thorax -2.17774 3.163 -1.54257
lowerneck -7.4769 5.7733 0.317645
upperneck 13.1912 8.36915 -1.98751
head 5.3005 4.08371 -0.0902175
rclavicle -1.64991e-014 -3.8763e-014
rhumerus -15.6198 -7.709 -77.3721
rradius 33.5568
rwrist -16.6885
rhand -20.1427 -27.6846
rfingers 7.12502
rthumb 6.20204 -417.574
lclavicle -1.64991e-014 -3.8763e-014
lhumerus -36.3766 1.22412 86.4857
lradius 29.9547
lwrist -1.7062
lhand -7.66309 -9.15075
lfingers 7.12502
lthumb 18.233 20.0147
rfemur 4.35645 -1.22337 33.8569
rtibia 13.5838
rfoot -12.468 -6.19672
rtoes 15.5555
lfemur -33.9385 2.83527 -11.2397
ltibia 33.0878
lfoot -9.09926 -9.56699
ltoes -10.9976
2995
root 38.5024 18.2914 7.95824 184.825 23.0612 -168.097
lowerback 11.7479 3.24857 8.06172
upperback 3.88317 5.86935 3.5262
thorax -2.07675 3.15191 -1.59354
lowerneck -6.97185 5.808 0.423227
upperneck 12.5713 8.3622 -2.01374
head 5.02823 4.09113 -0.145407
rclavicle -3.8117e-014 -9.14409e-015
rhumerus -15.4461 -7.96922 -77.2896
rradius 33.4957
rwrist -15.5326
rhand -18.2933 -26.3382
rfingers 7.12502
rthumb 7.98726 -416.167
lclavicle -3.8117e-014 -9.14409e-015
lhumerus -36.3515 1.25994 86.3407
lradius 29.8682
lwrist -1.43968
lhand -8.0141 -9.01269
lfingers 7.12502
lthumb 17.8953 20.184
rfemur 5.15962 -1.23962 33.7902
rtibia 12.6615
rfoot -12.4133 -6.57699
rtoes 15.2415
lfemur -33.9318 2.54037 -11.502
ltibia 31.0173
lfoot -8.31262 -8.70651
ltoes -9.82633
2996
root 38.5505 18.28 7.82651 184.85 22.7872 -168.089
lowerback 11.6002 3.2672 8.08022
upperback 3.89014 5.86722 3.41338
thorax -1.97431 3.15221 -1.70711
lowerneck -6.16378 5.71626 0.422586
upperneck 11.6693 8.17082 -1.95845
head 4.60944 4.01294 -0.186428
rclavicle -3.67752e-015 -1.58034e-014
rhumerus -15.739 -8.22091 -77.0338
rradius 33.7297
rwrist -13.4967
rhand -15.4109 -22.4673
rfingers 7.12502
rthumb 10.7684 -412.171
lclavicle -3.67752e-015 -1.58034e-014
lhumerus -36.3334 1.43632 86.0768
lradius 29.7415
lwrist -1.56811
lhand -8.02879 -9.57932
lfingers 7.12502
lthumb 17.8811 19.6186
rfemur 6.07102 -1.18702 33.8516
rtibia 11.811
rfoot -12.3723 -6.88512
rtoes 16.2581
lfemur -33.8347 2.27485 -11.6019
ltibia 29.12
lfoot -6.89494 -7.89404
ltoes -5.94234
2997
root 38.5998 18.2685 7.69883 184.854 22.6693 -168.126
lowerback 11.5655 3.39208 7.89304
upperback 3.82341 5.99888 3.36844
thorax -2.02833 3.2085 -1.66704
lowerneck -6.51036 5.79842 0.267106
upperneck 12.2166 8.29011 -1.57979
head 4.81452 4.08335 -0.0172226
rclavicle 3.73218e-014 1.49089e-014
rhumerus -15.4025 -10.1822 -76.543
rradius 32.5811
rwrist -9.74248
rhand -11.7888 -18.1393
rfingers 7.12502
rthumb 14.2606 -407.63
lclavicle 3.73218e-014 1.49089e-014
lhumerus -36.4335 1.55649 85.9447
lradius 29.665
lwrist -1.69361
lhand -7.72438 -10.1071
lfingers 7.12502
lthumb 18.174 19.0639
rfemur 6.96014 -1.10316 33.8442
rtibia 10.991
rfoot -12.3927 -7.03596
rtoes 17.1052
lfemur -33.6878 1.95466 -11.6416
ltibia 27.4078
lfoot -6.67178 -6.83348
ltoes -4.18536
2998
root 38.6484 18.2575 7.57133 184.918 22.581 -168.155
lowerback 11.4858 3.49781 7.65202
upperback 3.73379 6.09311 3.33219
thorax -2.0919 3.24404 -1.58221
lowerneck -6.42177 5.8751 0.288492
upperneck 12.3671 8.39829 -1.48396
head 4.84376 4.14696 0.0155684
rclavicle 8.8484e-014 3.26007e-014
rhumerus -15.2874 -9.23746 -76.7805
rradius 32.9445
rwrist -11.9908
rhand -15.3135 -21.3235
rfingers 7.12502
rthumb 10.8624 -411.023
lclavicle 8.8484e-014 3.26007e-014
lhumerus -36.5641 1.42078 85.9217
lradius 29.6529
lwrist -1.2068
lhand -7.63657 -10.1989
lfingers 7.12502
lthumb 18.2585 18.9642
rfemur 7.83695 -0.956725 33.8318
rtibia 10.093
rfoot -12.3508 -7.22206
rtoes 16.5216
lfemur -33.6096 1.79774 -11.7361
ltibia 26.0185
lfoot -6.88463 -5.61729
ltoes -4.62896
2999
root 38.6952 18.2493 7.43564 184.988 22.5289 -168.08
lowerback 11.3625 3.56375 7.55743
upperback 3.74752 6.14918 3.28042
thorax -2.00957 3.27306 -1.57893
lowerneck -6.29983 5.98609 0.530018
upperneck 12.1347 8.537 -1.71811
head 4.77375 4.21231 -0.093647
rclavicle 9.72057e-014 2.28105e-014
rhumerus -15.1914 -8.21655 -76.9889
rradius 33.5497
rwrist -13.2297
rhand -16.7377 -23.5334
rfingers 7.12502
rthumb 9.48842 -413.3
lclavicle 9.72057e-014 2.28105e-014
lhumerus -36.5411 1.23198 85.9072
lradius 29.6295
lwrist -0.622382
lhand -7.93578 -9.77227
lfingers 7.12502
lthumb 17.9706 19.4175
rfemur 8.77889 -0.872062 33.8748
rtibia 9.14121
rfoot -12.12 -7.48824
rtoes 14.8097
lfemur -33.5039 1.58786 -11.6828
ltibia 25.0091
lfoot -7.53696 -4.0515
ltoes -6.32936
3000
root 38.7411 18.2465 7.29295 185.03 22.5066 -168.061
lowerback 11.0956 3.6888 7.48571
upperback 3.81262 6.26609 3.18113
thorax -1.78213 3.33862 -1.62727
lowerneck -6.37729 6.03875 0.708676
upperneck 12.0141 8.57873 -1.75174
head 4.75915 4.23504 -0.129138
rclavicle 4.50558e-014 3.56818e-014
rhumerus -15.1683 -7.76023 -77.0672
rradius 33.927
rwrist -13.5328
rhand -16.4862 -23.6518
rfingers 7.12502
rthumb 9.73104 -413.407
lclavicle 4.50558e-014 3.56818e-014
lhumerus -36.441 1.27742 85.7112
lradius 29.6057
lwrist -0.759428
lhand -7.80817 -9.5996
lfingers 7.12502
lthumb 18.0934 19.5788
rfemur 9.62803 -0.760327 33.8481
rtibia 8.31153
rfoot -11.7423 -7.93832
rtoes 12.7945
lfemur -33.36 1.23777 -11.6013
ltibia 24.2882
lfoot -8.25321 -2.3135
ltoes -5.7579
3001
root 38.7869 18.2358 7.15568 185.145 22.3576 -167.948
lowerback 10.7328 3.76885 7.47931
upperback 3.89049 6.32636 3.12762
thorax -1.49162 3.38039 -1.64764
lowerneck -6.40965 6.09871 0.784893
upperneck 11.8986 8.64 -1.75042
head 4.73298 4.26641 -0.138273
rclavicle 9.75031e-014 -1.0708e-014
rhumerus -15.1389 -7.37669 -77.1012
rradius 34.084
rwrist -13.7383
rhand -16.1867 -21.5106
rfingers 7.12502
rthumb 10.02 -411.252
lclavicle 9.75031e-014 -1.0708e-014
lhumerus -36.2353 1.38915 85.4959
lradius 29.5083
lwrist -0.921291
lhand -7.5021 -10.2034
lfingers 7.12502
lthumb 18.3879 18.9476
rfemur 10.3623 -0.760473 33.9589
rtibia 7.62473
rfoot -11.3808 -8.17676
rtoes 11.6895
lfemur -33.2681 1.21204 -11.5677
ltibia 23.8256
lfoot -8.886 -0.973316
ltoes -3.406
3002
root 38.8363 18.2183 7.02387 185.104 22.2442 -168.037
lowerback 10.5712 3.86593 7.23302
upperback 3.97818 6.40441 3.05471
thorax -1.32385 3.42508 -1.57682
lowerneck -6.40397 6.16672 0.790024
upperneck 11.6942 8.72563 -1.83564
head 4.67439 4.3024 -0.164195
rclavicle -4.64038e-014 -1.09083e-014
rhumerus -15.3666 -6.0383 -77.2019
rradius 35.2462
rwrist -15.1849
rhand -17.7654 -24.8437
rfingers 7.12502
rthumb 8.49675 -414.653
lclavicle -4.64038e-014 -1.09083e-014
lhumerus -35.9417 1.2669 85.4569
lradius 29.4237
lwrist -0.80302
lhand -7.80657 -10.7616
lfingers 7.12502
lthumb 18.095 18.4167
rfemur 11.5009 -0.760845 33.8811
rtibia 6.5084
rfoot -11.1679 -7.97627
rtoes 13.5062
lfemur -33.1636 1.354 -11.7948
ltibia 23.8003
lfoot -9.69503 0.219748
ltoes -1.44884
